<?xml version="1.0" encoding="UTF-8"?>
<!DOCTYPE svg PUBLIC "-//W3C//DTD SVG 1.0//EN" "http://www.w3.org/TR/2001/REC-SVG-20010904/DTD/svg10.dtd">
<!-- Creator: CorelDRAW 2020 (64-Bit) -->
<svg xmlns="http://www.w3.org/2000/svg" xml:space="preserve" width="348px" height="328px" version="1.0" style="shape-rendering:geometricPrecision; text-rendering:geometricPrecision; image-rendering:optimizeQuality; fill-rule:evenodd; clip-rule:evenodd"
viewBox="0 0 284.029 267.931"
 xmlns:xlink="http://www.w3.org/1999/xlink"
 xmlns:xodm="http://www.corel.com/coreldraw/odm/2003">
 <defs>
  <style type="text/css">
   <![CDATA[
    .fil0 {fill:#602A7A}
   ]]>
  </style>
 </defs>
 <g id="Слой_x0020_1">
  <metadata id="CorelCorpID_0Corel-Layer"/>
  <path class="fil0" d="M241.117 83.415c-2.81,1.033 -2.929,1.829 -4.542,4.72l-9.811 17.145c-4.427,7.814 -8.529,14.832 -12.851,22.271 -27.622,47.542 -18.529,28.87 0.524,33.597 -0.384,10.521 -20.549,34.436 -29.1,42.332l-13.412 10.287c-30.057,19.995 -65.13,28.338 -101.618,18.921 -5.358,-1.383 -19.731,-7.64 -22.923,-6.385 0.628,2.552 2.084,3.591 5.513,6.572 1.23,1.069 2.034,1.467 3.264,2.512 15.11,12.845 26.536,20.176 47.432,26.885 25.533,8.197 54.076,7.214 78.899,-1.169 20.477,-6.916 29.294,-14.546 43.031,-26.406 33.251,-28.706 38.606,-70.374 40.609,-73.787 10.049,-1.307 22.049,3.683 16.485,-5.744l-30.524 -52.833c-3.61,-6.117 -7.587,-13.918 -10.976,-18.918z"/>
  <path class="fil0" d="M69.79 107.268c0.642,-10.886 20.498,-34.718 25.075,-39.156 30.512,-29.59 76.225,-43.928 118.819,-32.788 5.498,1.438 19.393,7.841 22.866,6.323 -1.393,-5.862 -60.066,-60.869 -135.716,-34.564 -31.145,10.83 -57.826,36.549 -71.826,66.241 -2.478,5.255 -4.691,10.629 -6.458,16.411 -1.143,3.741 -2.716,15.588 -5.526,17.619 -4.938,1.607 -21.865,-4.892 -15.684,5.528l19.496 33.638c3.576,6.422 7.317,12.922 11.029,19.191 3.397,5.738 7.768,14.439 10.989,18.883 3.53,-1.372 4.849,-5.549 6.867,-8.924 12.223,-20.442 24.257,-42.995 36.535,-63.168 3.036,-4.988 1.1,-4.335 0.779,-4.607 -3.873,-1.858 -12.304,-0.455 -17.245,-0.627z"/>
 </g>
</svg>
